<?xml version="1.0" encoding="utf-8"?>
<!-- Generator: Adobe Illustrator 16.0.0, SVG Export Plug-In . SVG Version: 6.00 Build 0)  -->
<!DOCTYPE svg PUBLIC "-//W3C//DTD SVG 1.1//EN" "http://www.w3.org/Graphics/SVG/1.1/DTD/svg11.dtd">
<svg version="1.1" id="Layer_1" xmlns="http://www.w3.org/2000/svg" xmlns:xlink="http://www.w3.org/1999/xlink" x="0px" y="0px"
	 width="30px" height="32.043px" viewBox="0 0 30 32.043" enable-background="new 0 0 30 32.043" xml:space="preserve">
<path fill="#010101" d="M30,19.802l-2.048-5.16l-0.004,0l-6.225-2.172V7.503l-1.717-0.992V4.427L18.193,3.44l2.397-2.398L19.549,0
	l-2.705,2.707L15.01,1.708L13.14,2.727L10.414,0L9.371,1.042l2.419,2.419l-1.774,0.966l0,2.084L8.299,7.503L8.3,12.46l-6.249,2.181
	l-0.004,0L0,19.802l3.444,4.353L8.3,23.442l0.001,4.727l6.71,3.874l6.712-3.875l-0.001-4.723l4.833,0.709L30,19.802z M19.016,18.19
	L19.016,18.19l0.72,1.812l-9.472,0.002l0.72-1.813h0.001l0.448-1.129l3.579,2.065l3.56-2.055L19.016,18.19z M10.265,21.969
	l9.493-0.003v2.049l-9.493,0.001L10.265,21.969z M10.264,8.637l4.747-2.74l4.748,2.74v3.146l-3.816-1.332l1.895,4.774l-2.827,1.632
	l-2.846-1.643l1.892-4.764l-3.792,1.323L10.264,8.637z M15.011,29.774l-4.746-2.74l0-1.054l9.494-0.001v1.054L15.011,29.774z"/>
</svg>
